<mxfile host="app.diagrams.net" modified="2020-12-14T18:10:06.055Z" agent="5.0 (Windows NT 10.0; Win64; x64) AppleWebKit/537.36 (KHTML, like Gecko) Chrome/87.0.4280.88 Safari/537.36" etag="acARXfGUDkUsklP1Hp_S" version="13.11.0" type="github">
  <diagram name="Page-1" id="2c0d36ab-eaac-3732-788b-9136903baeff">
    <mxGraphModel dx="1422" dy="762" grid="1" gridSize="10" guides="1" tooltips="1" connect="1" arrows="1" fold="1" page="1" pageScale="1.5" pageWidth="1169" pageHeight="827" background="#ffffff" math="0" shadow="0">
      <root>
        <mxCell id="0" />
        <mxCell id="1" parent="0" />
        <mxCell id="2dhVFBqvHw1l0eJDWAPI-73" value="" style="rounded=1;whiteSpace=wrap;html=1;fontSize=15;fillColor=#f8cecc;strokeColor=none;" parent="1" vertex="1">
          <mxGeometry x="770" y="540" width="550" height="290" as="geometry" />
        </mxCell>
        <mxCell id="cr9FANzja6UJMiHbJ5yW-204" style="strokeWidth=2;edgeStyle=orthogonalEdgeStyle;rounded=0;orthogonalLoop=1;jettySize=auto;html=1;exitX=0.5;exitY=1;exitDx=0;exitDy=0;entryX=0.5;entryY=0;entryDx=0;entryDy=0;" parent="1" source="14" edge="1" target="cr9FANzja6UJMiHbJ5yW-201">
          <mxGeometry relative="1" as="geometry">
            <Array as="points">
              <mxPoint x="925" y="500" />
              <mxPoint x="590" y="500" />
            </Array>
            <mxPoint x="531" y="578" as="targetPoint" />
          </mxGeometry>
        </mxCell>
        <mxCell id="2dhVFBqvHw1l0eJDWAPI-69" style="strokeWidth=2;edgeStyle=orthogonalEdgeStyle;rounded=0;orthogonalLoop=1;jettySize=auto;html=1;exitX=0.5;exitY=1;exitDx=0;exitDy=0;entryX=0.511;entryY=0;entryDx=0;entryDy=0;entryPerimeter=0;" parent="1" source="14" edge="1" target="cr9FANzja6UJMiHbJ5yW-148">
          <mxGeometry relative="1" as="geometry">
            <mxPoint x="1009" y="565" as="targetPoint" />
            <Array as="points">
              <mxPoint x="925" y="500" />
              <mxPoint x="1050" y="500" />
              <mxPoint x="1050" y="550" />
            </Array>
          </mxGeometry>
        </mxCell>
        <mxCell id="14" value="BenchMKresults" style="rounded=1;fillColor=#23445D;gradientColor=none;strokeColor=none;fontColor=#FFFFFF;fontStyle=1;fontFamily=Tahoma;fontSize=14" parent="1" vertex="1">
          <mxGeometry x="860" y="400" width="130" height="60" as="geometry" />
        </mxCell>
        <mxCell id="2dhVFBqvHw1l0eJDWAPI-76" style="strokeWidth=2;edgeStyle=orthogonalEdgeStyle;rounded=0;orthogonalLoop=1;jettySize=auto;html=1;exitX=0.5;exitY=1;exitDx=0;exitDy=0;fontSize=15;fontColor=#FFFFFF;" parent="1" source="cr9FANzja6UJMiHbJ5yW-148" target="2dhVFBqvHw1l0eJDWAPI-74" edge="1">
          <mxGeometry relative="1" as="geometry">
            <Array as="points">
              <mxPoint x="1045.5" y="660" />
              <mxPoint x="950.5" y="660" />
            </Array>
          </mxGeometry>
        </mxCell>
        <mxCell id="2dhVFBqvHw1l0eJDWAPI-77" style="strokeWidth=2;edgeStyle=orthogonalEdgeStyle;rounded=0;orthogonalLoop=1;jettySize=auto;html=1;exitX=0.5;exitY=1;exitDx=0;exitDy=0;fontSize=15;fontColor=#FFFFFF;" parent="1" source="cr9FANzja6UJMiHbJ5yW-148" target="2dhVFBqvHw1l0eJDWAPI-75" edge="1">
          <mxGeometry relative="1" as="geometry">
            <Array as="points">
              <mxPoint x="1045.5" y="660" />
              <mxPoint x="1130.5" y="660" />
            </Array>
          </mxGeometry>
        </mxCell>
        <mxCell id="cr9FANzja6UJMiHbJ5yW-148" value="BenchMKresults_type_of_Io_and_drive_order" style="rounded=1;fillColor=#23445D;gradientColor=none;strokeColor=none;fontColor=#FFFFFF;fontStyle=1;fontFamily=Tahoma;fontSize=14" parent="1" vertex="1">
          <mxGeometry x="807.5" y="567.75" width="475" height="80" as="geometry" />
        </mxCell>
        <mxCell id="cr9FANzja6UJMiHbJ5yW-151" value="hardware" style="rounded=1;fillColor=#23445D;gradientColor=none;strokeColor=none;fontColor=#FFFFFF;fontStyle=1;fontFamily=Tahoma;fontSize=14" parent="1" vertex="1">
          <mxGeometry x="670" y="590" width="80" height="55.5" as="geometry" />
        </mxCell>
        <mxCell id="cr9FANzja6UJMiHbJ5yW-165" value="" style="edgeStyle=elbowEdgeStyle;elbow=vertical;strokeWidth=2;rounded=0;entryX=0.5;entryY=0;entryDx=0;entryDy=0;exitX=0.501;exitY=0.982;exitDx=0;exitDy=0;exitPerimeter=0;" parent="1" source="14" target="cr9FANzja6UJMiHbJ5yW-151" edge="1">
          <mxGeometry x="-244.42000000000007" y="404.0000000000001" width="100" height="100" as="geometry">
            <mxPoint x="1121" y="704.5" as="sourcePoint" />
            <mxPoint x="435.58000000000015" y="724" as="targetPoint" />
            <Array as="points">
              <mxPoint x="901" y="500" />
              <mxPoint x="921" y="550" />
              <mxPoint x="631" y="694.5" />
              <mxPoint x="435.2900000000002" y="694.0000000000001" />
            </Array>
          </mxGeometry>
        </mxCell>
        <mxCell id="cr9FANzja6UJMiHbJ5yW-201" value="allResults.json" style="rounded=1;fillColor=#23445D;gradientColor=none;strokeColor=none;fontColor=#FFFFFF;fontStyle=1;fontFamily=Tahoma;fontSize=14" parent="1" vertex="1">
          <mxGeometry x="530" y="590" width="120" height="55.5" as="geometry" />
        </mxCell>
        <mxCell id="2dhVFBqvHw1l0eJDWAPI-74" value="reads" style="rounded=1;fillColor=#23445D;gradientColor=none;strokeColor=none;fontColor=#FFFFFF;fontStyle=1;fontFamily=Tahoma;fontSize=14" parent="1" vertex="1">
          <mxGeometry x="897.5" y="675.5" width="105" height="70" as="geometry" />
        </mxCell>
        <mxCell id="2dhVFBqvHw1l0eJDWAPI-75" value="writes" style="rounded=1;fillColor=#23445D;gradientColor=none;strokeColor=none;fontColor=#FFFFFF;fontStyle=1;fontFamily=Tahoma;fontSize=14" parent="1" vertex="1">
          <mxGeometry x="1077.5" y="675.5" width="105" height="70" as="geometry" />
        </mxCell>
        <mxCell id="2dhVFBqvHw1l0eJDWAPI-80" value="&amp;nbsp;this directory is replicated for every different combination of drive order and i/o type" style="text;html=1;strokeColor=none;fillColor=none;align=center;verticalAlign=middle;whiteSpace=wrap;rounded=0;fontSize=15;fontColor=#000000;" parent="1" vertex="1">
          <mxGeometry x="802.75" y="770" width="469.5" height="40" as="geometry" />
        </mxCell>
      </root>
    </mxGraphModel>
  </diagram>
</mxfile>
